<svg width="20" height="18" viewBox="0 0 20 18" fill="none" xmlns="http://www.w3.org/2000/svg">
<path d="M18.7058 9.3935C18.5239 9.3935 18.3508 9.4317 18.1936 9.49982V1.856C18.1936 0.898726 17.4201 0.119873 16.4693 0.119873H10.8253C10.6095 0.119873 10.4347 0.294744 10.4347 0.510471C10.4347 0.726199 10.6095 0.90107 10.8253 0.90107H16.4693C16.9893 0.90107 17.4124 1.32944 17.4124 1.856V8.63171C17.0924 8.49254 16.7007 8.49481 16.3871 8.63574V2.2225C16.3871 2.00678 16.2122 1.8319 15.9965 1.8319H2.17481C1.95908 1.8319 1.78421 2.00678 1.78421 2.2225V11.0298C1.78421 11.2455 1.95908 11.4203 2.17481 11.4203H10.1955C10.1955 11.5845 10.1963 11.7485 10.2068 11.9125C10.2156 12.0591 10.229 12.2055 10.2482 12.3512H1.72394C1.20414 12.3512 0.781196 11.9228 0.781196 11.3962V1.856C0.781196 1.32948 1.20414 0.90107 1.72394 0.90107H7.37278C7.5885 0.90107 7.76337 0.726199 7.76337 0.510471C7.76337 0.294744 7.5885 0.119873 7.37278 0.119873H1.72394C0.773346 0.119873 0 0.898726 0 1.856V11.3962C0 12.3535 0.773346 13.1323 1.72394 13.1323H6.04482V14.2812H4.15206C3.42801 14.2812 2.83895 14.8701 2.83895 15.5939V16.3599C2.83895 16.5756 3.01382 16.7505 3.22954 16.7505H12.2943V17.4896C12.3134 18.0069 13.0564 18.0072 13.0755 17.4896C13.0924 16.3883 13.1137 15.8725 12.4425 14.9358L11.9566 14.2469C11.3759 13.4239 10.9767 12.5749 10.9767 11.5501V8.21287C11.5778 8.38591 11.9975 8.94982 11.9998 9.57352V10.9221C12.0188 11.4401 12.763 11.4385 12.781 10.9221C12.7808 10.0175 12.7812 6.07353 12.781 5.09465C12.781 4.76237 13.0446 4.58304 13.2926 4.58304C13.5747 4.58304 13.8042 4.81256 13.8042 5.09465V9.43197C13.8252 9.9519 14.5637 9.94651 14.5856 9.43193C14.5834 8.74092 15.589 8.76534 15.6086 9.43193V9.82116C15.6086 10.0369 15.7835 10.2118 15.9992 10.2118C16.2121 10.2118 16.3898 10.034 16.3898 9.82101C16.3898 9.53892 16.6193 9.3094 16.9014 9.3094C17.1798 9.3094 17.413 9.54247 17.413 9.82101V10.6863C17.413 10.902 17.5879 11.0769 17.8036 11.0769C18.0194 11.0769 18.1942 10.902 18.1942 10.6863C18.1942 10.4042 18.4237 10.1747 18.7058 10.1747C18.9879 10.1747 19.2174 10.4042 19.2174 10.6863V12.0252C19.2174 12.8126 19.0557 13.2166 18.6587 14.0161L17.9226 15.4987C17.7474 15.8515 17.6548 16.2462 17.6548 16.6402V17.4896C17.6548 17.7053 17.8296 17.8802 18.0454 17.8802C18.2611 17.8802 18.436 17.7053 18.436 17.4896V16.6402C18.436 16.3661 18.5004 16.0915 18.6222 15.8461C19.1785 14.6222 20.039 13.4501 19.9987 12.0252V10.6863C19.9986 9.97346 19.4187 9.3935 18.7058 9.3935ZM2.56541 10.6392V2.6131H15.6058V8.24412C15.2903 8.10413 14.8959 8.10812 14.5856 8.23697V5.09481C14.5856 4.38181 14.0055 3.80173 13.2925 3.80173C12.5625 3.7965 11.9929 4.39165 11.9998 5.09485V7.89379C11.6176 7.57128 11.1241 7.37668 10.5861 7.37668C10.3703 7.37668 10.1955 7.55155 10.1955 7.76728V10.6392H2.56541V10.6392ZM6.82602 13.1324H10.4083C10.5514 13.6041 10.7623 13.9254 11.0183 14.2812H6.82602V13.1324ZM3.62014 15.9693V15.5939C3.62014 15.3008 3.85876 15.0624 4.15206 15.0624H11.5757C11.7799 15.3516 12.0255 15.6408 12.1605 15.9693H3.62014Z" fill="white"/>
<path d="M5.1286 4.07007H4.22187C3.70417 4.08929 3.70456 4.83224 4.22187 4.85126H5.1286C5.6463 4.83209 5.64591 4.08909 5.1286 4.07007Z" fill="white"/>
<path d="M6.88984 4.85126H10.6433C11.161 4.83205 11.1606 4.08909 10.6433 4.07007H6.88984C6.37214 4.08929 6.37253 4.83224 6.88984 4.85126Z" fill="white"/>
<path d="M5.1286 6.23267H4.22187C3.70417 6.25188 3.70456 6.99484 4.22187 7.01386H5.1286C5.6463 6.99465 5.64591 6.25169 5.1286 6.23267Z" fill="white"/>
<path d="M8.92946 6.23267H6.88984C6.37214 6.25188 6.37253 6.99484 6.88984 7.01386H8.92946C9.44716 6.99465 9.44677 6.25169 8.92946 6.23267Z" fill="white"/>
<path d="M5.1286 8.39526H4.22187C3.70417 8.41448 3.70456 9.15744 4.22187 9.17646H5.1286C5.6463 9.15724 5.64591 8.41429 5.1286 8.39526Z" fill="white"/>
<path d="M8.92946 8.39526H6.88984C6.37214 8.41448 6.37253 9.15744 6.88984 9.17646H8.92946C9.44716 9.15724 9.44677 8.41429 8.92946 8.39526Z" fill="white"/>
<path d="M8.76339 0.659916C8.84522 0.856387 9.07677 0.952474 9.27351 0.87123C9.7418 0.650815 9.46182 -0.0255447 8.97471 0.149795C8.77761 0.231391 8.68269 0.463055 8.76339 0.659916Z" fill="white"/>
</svg>
